<?xml version="1.0" encoding="utf-8"?>
<!-- Svg Vector Icons : http://www.onlinewebfonts.com/icon -->
<!DOCTYPE svg PUBLIC "-//W3C//DTD SVG 1.1//EN" "http://www.w3.org/Graphics/SVG/1.1/DTD/svg11.dtd">
<svg version="1.1" xmlns="http://www.w3.org/2000/svg" xmlns:xlink="http://www.w3.org/1999/xlink" x="0px" y="0px" viewBox="0 0 1000 1000" enable-background="new 0 0 1000 1000" xml:space="preserve">
<metadata> Svg Vector Icons : http://www.onlinewebfonts.com/icon </metadata>
<g><g transform="translate(0.000000,472.000000) scale(0.100000,-0.100000)"><path d="M4844.1,4621.8c-727.6-22.9-1515.7-231.4-2137-562.9C1272.7,3293.7,311.6,1882.3,121.9,260.3C92.7,8,92.7-575.7,121.9-828c91.7-777.6,358.6-1517.8,769.3-2137c218.9-327.3,352.3-494.1,623.4-767.2C2311-4539,3324.2-5031,4456.3-5162.4c254.4-29.2,836-29.2,1088.3,0c946.5,110.5,1818,475.3,2551.8,1069.5c202.2,162.6,571.3,533.7,731.8,733.9c565,708.8,919.4,1544.9,1042.4,2460.1c35.4,273.1,39.6,881.9,8.3,1159.2c-110.5,946.5-475.3,1818-1069.5,2551.8c-162.6,202.2-533.7,571.2-733.9,731.8C7162.4,4273.6,6007.4,4659.3,4844.1,4621.8z M5505,4167.3c314.8-37.5,581.7-93.8,850.6-179.3c233.5-75.1,652.5-248.1,637.9-262.7c-6.3-6.3-87.5,0-183.5,12.5c-95.9,14.6-356.5,31.3-579.6,37.5c-927.8,29.2-1847.2-123-2724.9-450.3c-95.9-35.4-173-56.3-173-48c0,8.3-14.6,108.4-31.3,223.1c-41.7,283.5-39.6,356.5,6.3,371.1c18.8,6.3,143.9,48,275.2,93.8C4183.2,4171.5,4862.8,4242.3,5505,4167.3z M2853,3629.4c0-4.2,14.6-108.4,31.3-233.5c104.2-744.3,406.5-1605.3,802.7-2293.3c275.2-479.5,623.4-959,942.3-1296.8c66.7-70.9,120.9-141.8,120.9-158.4c0-143.9-485.8-1307.2-544.1-1307.2c-39.6,0-633.8,606.7-811,823.5C2550.7,216.5,2090,1415.3,1987.8,2824.6l-14.6,198.1l120.9,104.2C2367.3,3360.4,2853,3681.5,2853,3629.4z M6326.4,3343.8c554.6-27.1,1027.8-104.2,1482.3-237.7c196-56.3,250.2-98,523.3-396.1c304.4-337.7,587.9-767.2,758.9-1161.3c150.1-341.9,160.5-323.1-123-202.2c-948.6,402.4-1882.6,579.6-2912.5,552.5c-777.7-20.8-1255.1-108.4-2078.6-381.5c-54.2-18.8-298.1,529.6-456.6,1029.9c-45.9,141.8-83.4,266.9-83.4,275.2c0,25,341.9,154.3,658.8,248.1c483.7,145.9,1007,239.8,1517.8,271c139.7,10.4,266.9,18.8,283.5,18.8C5913.6,3362.5,6107.5,3354.2,6326.4,3343.8z M1716.8,1690.5c235.6-1071.6,754.7-2109.9,1469.8-2943.8c166.8-193.9,571.2-594.2,723.4-717.2l89.6-70.9l-45.9-75c-154.3-258.5-554.6-765.1-771.4-975.7l-110.5-108.4l-208.5,173C1806.4-2151.9,1028.8-936.4,672.3,391.6c-60.5,231.4-58.4,306.5,14.6,550.4c173,575.4,456.6,1127.9,790.2,1547l91.7,114.7l48-333.6C1641.7,2086.6,1687.6,1826,1716.8,1690.5z M6651.6,1465.3c884-60.5,1711.6-283.5,2503.9-677.6c112.6-56.3,212.7-116.8,223.1-133.4c31.3-60.5,83.4-464.9,98-756.8l12.5-287.7l-102.1,41.7c-56.3,20.8-173.1,66.7-258.5,102.1C8811.5-121.2,8419.5-17,7979.6,58.1c-796.4,137.6-1701.2,129.3-2495.5-22.9c-456.6-85.5-402.4-91.7-537.9,54.2c-227.2,246-623.4,771.4-767.2,1017.4c-16.7,31.3,333.6,145.9,675.5,223.1C5463.3,1465.3,6036.6,1509.1,6651.6,1465.3z M6584.9-292.2c0-54.2-81.3-419.1-133.4-596.3c-300.2-1027.8-850.6-1959.8-1603.2-2710.3c-339.8-341.9-775.6-692.2-1107.1-894.4l-106.3-64.6l-198.1,73c-225.2,83.4-692.2,308.6-727.6,352.4c-18.8,22.9,14.6,58.4,168.9,179.3c252.3,198.1,796.4,744.3,1017.4,1021.6c298.1,375.3,571.2,811,802.7,1282.2c189.7,387.8,406.5,925.7,442,1096.6c6.3,33.3,20.8,68.8,35.4,79.2c54.2,43.8,733.9,158.4,1119.6,187.6c118.8,10.4,233.5,18.8,254.3,20.8C6568.2-265.1,6584.9-275.5,6584.9-292.2z M7606.5-317.2c214.7-25,471.2-73,808.9-148c68.8-16.7,75.1-45.8,45.9-218.9c-70.9-446.1-229.3-1007-400.3-1434.4c-323.1-800.6-790.1-1528.2-1369.7-2130.7c-256.4-264.8-283.5-287.7-404.5-327.3c-502.4-164.7-1219.6-227.2-1797.1-158.4c-137.6,16.7-258.5,31.3-268.9,31.3s64.6,62.5,166.8,139.7C5711.4-3571.7,6645.4-2128.9,6964.3-582l64.6,316.9l158.5-10.4C7275-281.8,7462.6-300.5,7606.5-317.2z M770.3-1055.2c429.5-861,1063.3-1670,1780.4-2268.3c104.2-85.5,189.7-162.6,193.9-171c6.3-14.6-277.3-243.9-398.2-323.2c-54.2-35.4-58.4-35.4-125.1,14.6c-135.5,104.2-398.2,356.5-558.7,533.7c-502.4,554.6-865.2,1255.1-1029.9,1984.8c-43.8,191.8-70.9,371.1-104.2,677.6l-8.3,83.4l43.8-104.2C588.9-684.1,682.7-878,770.3-1055.2z M9140.9-713.3c125.1-52.1,243.9-100.1,264.8-106.3c47.9-14.6,45.9-66.7-18.8-375.3c-189.7-921.5-669.2-1761.7-1376-2405.9c-168.9-154.3-504.5-414.9-535.8-414.9c-10.4,0,14.6,39.6,54.2,89.6c39.6,47.9,131.3,177.2,206.4,285.6c565,825.6,977.8,1865.9,1142.5,2872.9c12.5,81.3,27.1,150.1,31.3,150.1C8911.6-617.4,9017.9-661.2,9140.9-713.3z"/></g></g>
</svg>